PathFileType	4	(X/Y/Z)	OpenSim_Sub10_CSBaseline_Gyro.trc
DataRate	CameraRate	NumFrames	NumMarkers	Units	OrigDataRate	OrigDataStartFrame	OrigNumFrames
100	100	27	8	m	100	2278	9111
Frame#	Time	torso_imu_offset_imu	pelvis_imu_offset_imu	tibia_r_imu_offset_imu	femur_r_imu_offset_imu	tibia_l_imu_offset_imu	femur_l_imu_offset_imu	toes_r_imu_offset_imu	toes_l_imu_offset_imu
				X1	Y1	Z1	X2	Y2	Z2	X3	Y3	Z3	X4	Y4	Z4	X5	Y5	Z5	X6	Y6	Z6	X7	Y7	Z7	X8		Y8	Z8	

2278	22.77000000	-0.33699361	-0.01818679	-0.08176378	-0.54780494	-0.03490573	0.09460855	-0.74356214	-0.89727331	1.82922717	-0.50055751	-0.22280796	1.62507713	0.29505406	-0.18710613	0.08227439	-0.18209106	-0.46512263	1.24916951	-1.48126971	3.84488697	0.93607994	0.06183905	-0.17418534	0.03776790
2279	22.78000000	-0.33229919	0.04831738	-0.11889139	-0.53956264	-0.00957465	0.08321857	-0.06525184	-1.02640355	2.29920023	-0.37477909	-0.20616408	1.51056565	0.31892193	-0.14890424	0.02821206	-0.03924660	-0.52902670	1.28475635	-1.75212626	3.89081872	0.92512261	0.06260392	-0.17073284	0.02319110
2280	22.79000000	-0.35164218	0.04397877	-0.13621404	-0.51252888	0.02261150	0.07600208	0.34707919	-1.05495892	2.66396544	-0.27611037	-0.15651627	1.40559495	0.30323959	-0.15051965	-0.00496615	-0.02531868	-0.50660228	1.33522711	-1.92613097	3.93351420	0.88835470	0.06445160	-0.16422708	0.01755395
2281	22.80000000	-0.34209872	-0.02894049	-0.14647859	-0.48374339	0.06151774	0.07951361	0.63859471	-0.91567830	2.93851254	-0.18242789	-0.07520211	1.31411801	0.30324778	-0.14870224	-0.02696576	-0.01397208	-0.55672361	1.33596092	-1.99963709	4.03994684	0.84303060	0.05146709	-0.16233961	0.02312083
2282	22.81000000	-0.34403014	-0.05411718	-0.13221789	-0.44689912	0.10804659	0.09752598	0.87152791	-0.77576091	3.24572401	-0.06617525	-0.01899942	1.22071469	0.28971693	-0.13662710	-0.04179170	-0.00762094	-0.58142644	1.29786204	-2.01942471	4.18158795	0.80451477	0.05280721	-0.16075299	0.03672419
2283	22.82000000	-0.33910551	-0.03067641	-0.12932895	-0.40941502	0.15165006	0.11172819	1.04356715	-0.73419565	3.56640994	0.08746957	0.02177861	1.12528974	0.27884915	-0.11857556	-0.05749905	-0.01169241	-0.60427152	1.27713346	-2.01456820	4.31775858	0.77997021	0.04123723	-0.13884571	0.04062073
2284	22.83000000	-0.34547598	-0.02153115	-0.12558129	-0.37760011	0.17837971	0.12212487	1.30788022	-0.76625153	3.84448091	0.25382243	0.05823662	1.02606196	0.22043249	-0.08613484	-0.04914203	-0.03255212	-0.54762627	1.33283430	-2.00377301	4.40881063	0.76479908	0.04640232	-0.13208303	0.05322172
2285	22.84000000	-0.34819610	-0.01522611	-0.12303474	-0.36347077	0.17862010	0.12683312	1.62180913	-0.76248334	4.10662000	0.41268217	0.09676060	0.90063005	0.20880971	-0.06723910	-0.00605886	-0.05161402	-0.50131953	1.37331839	-2.01590215	4.44498306	0.75444760	0.02860957	-0.12236075	0.06977785
2286	22.85000000	-0.34264088	-0.00789814	-0.11988078	-0.35437426	0.17087306	0.11856379	1.92460756	-0.73485166	4.31700730	0.54038765	0.12482243	0.76443978	0.19091139	-0.05851278	0.04849153	-0.05258691	-0.43320059	1.38330841	-2.04458514	4.46303343	0.72106988	0.03290041	-0.12157026	0.08160184
2287	22.86000000	-0.33315990	0.00201952	-0.11030244	-0.33219985	0.16608905	0.09555533	2.07120948	-0.60040295	4.51518020	0.60801165	0.11281526	0.62949689	0.18300347	-0.02978928	0.07209067	-0.05070162	-0.40111399	1.38679187	-2.06323657	4.48568900	0.70646590	0.01362164	-0.09364140	0.08921619
2288	22.87000000	-0.33832727	0.00607734	-0.11347109	-0.30995588	0.16847106	0.07210893	1.62057106	-0.38183184	4.68719618	0.59279282	0.07252658	0.50858458	0.16327435	-0.00986817	0.10877829	-0.06936028	-0.36908570	1.42767917	-2.08518655	4.49614578	0.73167897	0.03061449	-0.08523097	0.09680431
2289	22.88000000	-0.32498469	-0.03412719	-0.10874650	-0.26726936	0.17413474	0.05487430	0.58707224	-0.15299494	4.76323973	0.53413602	0.03372322	0.40010957	0.15857201	-0.00874699	0.17412644	-0.12497922	-0.38985659	1.42442415	-2.04693555	4.48908957	0.80535595	0.03025400	-0.07043974	0.10903359
2290	22.89000000	-0.31228813	-0.06980713	-0.08548497	-0.22694710	0.16178395	0.03977003	-0.39108198	0.04472981	4.78817379	0.45066351	0.02295830	0.28512841	0.15413226	0.01066347	0.24744284	-0.15635611	-0.41396265	1.40500074	-1.91097367	4.46046392	0.93643004	0.02304101	-0.05349151	0.11243532
2291	22.90000000	-0.28904404	-0.06393532	-0.08286698	-0.18636706	0.13922374	0.02535743	-0.94568728	0.14403826	4.84563444	0.36973104	0.03149916	0.17283632	0.12333960	0.02407800	0.29888081	-0.18153980	-0.41564418	1.35230216	-1.71695821	4.46591682	1.12700330	0.03735530	-0.03789964	0.12628078
2292	22.91000000	-0.23417890	-0.06743612	-0.05782834	-0.14661313	0.12512693	0.01236682	-1.08730286	0.09931320	4.92261137	0.30145516	0.04334823	0.07742054	0.08825956	0.03466589	0.33441900	-0.15670675	-0.42829651	1.28150787	-1.47150911	4.53331331	1.35963703	0.02978607	-0.01285760	0.13584951
2293	22.92000000	-0.15752391	-0.05482155	-0.04691728	-0.11742525	0.13085893	0.01202560	-0.93611721	-0.01104711	4.90035152	0.27706898	0.07146190	-0.00051308	0.01568429	0.03594005	0.39258840	-0.11270876	-0.44885798	1.21280506	-1.20702687	4.61804076	1.58783973	0.02315805	-0.00957369	0.14921350
2294	22.93000000	-0.08792159	-0.03979937	-0.05536082	-0.10020975	0.15509331	0.00930641	-0.77789572	-0.07828168	4.73492590	0.33851509	0.15768461	-0.07847308	-0.00778788	0.05319943	0.47607976	-0.08212287	-0.42288820	1.16453807	-1.01775867	4.58727565	1.74140009	0.02385031	0.01345420	0.14240988
2295	22.94000000	-0.04084685	-0.05150175	-0.05689004	-0.08491383	0.18552081	0.01190624	-0.75121283	-0.07882628	4.49156905	0.44815446	0.24950395	-0.18715474	-0.04160494	0.02005835	0.52820278	-0.04460598	-0.36464325	1.13461612	-0.90661728	4.48797331	1.81259937	0.02810246	0.01409245	0.13711430
2296	22.95000000	-0.00486622	-0.05881343	-0.05609506	-0.07113945	0.18033340	0.01527622	-0.61414182	-0.01260488	4.28824340	0.49772613	0.22870685	-0.28918002	-0.03961673	0.00402664	0.57641476	-0.00340103	-0.33576983	1.08406149	-0.72258704	4.30176173	1.78567773	0.02882889	0.01383985	0.12444284
2297	22.96000000	0.02801869	-0.05431882	-0.03823844	-0.03767057	0.14821343	0.00813032	-0.21239894	0.07583953	4.15963828	0.48735593	0.11329977	-0.34227451	-0.06775865	-0.03208347	0.67160809	0.04767009	-0.30596778	1.03506482	-0.42925253	3.96778459	1.69476351	0.03359603	-0.00065212	0.13254366
2298	22.97000000	0.06303487	-0.06118418	-0.03297383	0.02002124	0.09295394	0.00668355	0.35244945	0.14998803	3.99472517	0.43623556	-0.04002968	-0.37906926	-0.07393485	-0.04595456	0.76404478	0.09279006	-0.27664786	0.97992533	-0.14316055	3.47307245	1.55792023	0.00902100	-0.00876488	0.14222629
2299	22.98000000	0.08587529	-0.05752770	-0.04087441	0.06560596	0.02610346	-0.00601429	0.85069108	0.27449175	3.68288314	0.37191793	-0.17362166	-0.42668319	-0.08600166	-0.04436717	0.85920788	0.12308336	-0.22091945	0.88505778	0.13887120	2.94740887	1.46032910	0.00456976	-0.04994035	0.14910961
2300	22.99000000	0.09414139	-0.03804132	-0.04663271	0.08032433	-0.03184370	-0.01538961	1.02153725	0.38272087	3.22558164	0.33417363	-0.25419590	-0.45940418	-0.08725053	-0.04504783	0.91573002	0.20613797	-0.16594950	0.81229032	0.37517075	2.37193290	1.41428545	-0.00141889	-0.05748341	0.15874369
2301	23	0.09776023	-0.03641676	-0.04965628	0.07965458	-0.06077770	-0.02004351	1.08955104	0.38295292	2.69647122	0.30575846	-0.33331521	-0.52710771	-0.05904332	-0.05053733	0.96070082	0.25713935	-0.09202468	0.71381750	0.59788391	1.79126028	1.37081387	-0.00488988	-0.10472735	0.19718659
2302	23.01000000	0.11240928	-0.03517570	-0.04243091	0.05699925	-0.07929719	-0.00899548	1.29474125	0.35560602	2.16695820	0.20413019	-0.41356613	-0.55646999	-0.01603545	-0.04001682	1.03234335	0.26288322	-0.04270213	0.60820779	0.71289435	1.24162573	1.34747941	-0.01748602	-0.17025123	0.25984439
2303	23.02000000	0.13510715	-0.03968301	-0.03498468	0.02506825	-0.11884346	0.01122939	1.45338642	0.28042339	1.61305296	-0.00288361	-0.46303821	-0.49310347	0.02595770	-0.02935734	1.09649362	0.24625198	-0.04750334	0.49936037	0.61775588	0.73481534	1.37239267	-0.03533904	-0.24454353	0.30020541
2304	23.03000000	0.14623856	-0.02763475	-0.01788573	-0.01742486	-0.16297356	0.03510944	1.51627920	0.14056874	1.03733071	-0.27327142	-0.48847010	-0.33510341	0.06497830	0.00924837	1.13690553	0.24396085	-0.06838723	0.44934178	0.39143962	0.24308662	1.39703764	-0.01479596	-0.33140505	0.31087165
